<svg xmlns="http://www.w3.org/2000/svg" width="550" height="461" fill="none"><path fill="url(#a)" d="M396.28 81.01c8.056 8.625-5.009-9.449 0 0-56.831-94.822-216.662-99.623-288.038-44.62C41.526 96.842-3.372 183.659.199 268.579c3.875 92.305 28.741 165.34 111.091 185.476 38.279 9.326 74.773-1.155 106.65-20.631 25.171-15.391 58.311-13.947 82.35 4.085 9.101 6.808 19.205 12.585 30.44 16.67 25.476 9.243 48.121 6.767 57.919 5.571 76.515-9.202 162.044-112.029 161.347-183.62-.828-82.196-53.207-167.225-153.716-195.118Z"/><rect width="373.779" height="429" x="56.5" y="15.5" fill="#fff" stroke="#DDE3E8" rx="7.5"/><rect width="315.842" height="48.789" x="82.752" y="67.1" fill="#fff" stroke="#4EB9F4" rx="4.5"/><path fill="#2B3254" d="M113.032 91.448v.608c0 1.323-.454 2.424-1.362 3.302-.908.87-2.11 1.304-3.607 1.304-1.545 0-2.824-.507-3.838-1.521-1.004-1.024-1.506-2.27-1.506-3.737 0-1.468.502-2.709 1.506-3.722 1.014-1.024 2.284-1.536 3.809-1.536a5.05 5.05 0 0 1 2.579.681c.782.444 1.385 1.033 1.81 1.767l-1.159.68c-.289-.55-.729-.989-1.318-1.317a3.75 3.75 0 0 0-1.926-.507c-1.159 0-2.11.381-2.853 1.144-.744.753-1.116 1.69-1.116 2.81s.372 2.057 1.116 2.81c.753.753 1.723 1.13 2.911 1.13 1.014 0 1.835-.246 2.462-.739a3.066 3.066 0 0 0 1.144-1.94h-3.722v-1.218h5.07ZM115.423 93.432c.125.647.42 1.149.883 1.506.473.357 1.053.536 1.738.536.956 0 1.651-.352 2.086-1.057l1.072.608c-.705 1.091-1.767 1.637-3.187 1.637-1.149 0-2.085-.358-2.81-1.072-.714-.724-1.071-1.637-1.071-2.738 0-1.09.352-1.998 1.057-2.723.705-.724 1.617-1.086 2.737-1.086 1.063 0 1.927.377 2.593 1.13.676.743 1.014 1.641 1.014 2.694a3.8 3.8 0 0 1-.043.565h-6.069Zm2.505-3.201c-.676 0-1.236.193-1.68.58-.444.376-.719.883-.825 1.52h4.837c-.106-.686-.376-1.207-.811-1.564a2.32 2.32 0 0 0-1.521-.536ZM124.244 90.448c.415-.898 1.168-1.347 2.259-1.347v1.318c-.618-.029-1.149.135-1.593.493-.444.357-.666.931-.666 1.723v3.838h-1.26v-7.242h1.26v1.217ZM135.558 89.043c.811 0 1.467.266 1.969.797.503.521.754 1.23.754 2.129v4.505h-1.26v-4.462c0-.56-.145-.994-.435-1.303-.29-.31-.676-.464-1.159-.464-.54 0-.975.184-1.303.55-.319.358-.478.908-.478 1.652v4.026h-1.26v-4.46c0-.56-.14-.995-.42-1.304-.271-.31-.643-.464-1.116-.464-.531 0-.975.184-1.332.55-.348.368-.522.918-.522 1.652v4.026h-1.26v-7.242h1.26v.97c.493-.772 1.212-1.158 2.158-1.158.976 0 1.685.41 2.13 1.231.502-.82 1.26-1.23 2.274-1.23ZM146.024 89.231h1.261v7.243h-1.261v-1.246c-.627.956-1.54 1.434-2.737 1.434-1.014 0-1.878-.367-2.593-1.101-.714-.744-1.072-1.646-1.072-2.709 0-1.062.358-1.96 1.072-2.694.715-.743 1.579-1.115 2.593-1.115 1.197 0 2.11.478 2.737 1.434v-1.246Zm-2.578 6.214c.734 0 1.347-.246 1.84-.739.492-.502.738-1.12.738-1.854 0-.733-.246-1.347-.738-1.84-.493-.501-1.106-.752-1.84-.752-.724 0-1.332.25-1.825.753-.492.492-.739 1.106-.739 1.84 0 .733.247 1.351.739 1.853.493.493 1.101.74 1.825.74ZM152.8 89.043c.85 0 1.531.27 2.043.811.511.531.767 1.255.767 2.173v4.447h-1.26v-4.375c0-.589-.159-1.043-.478-1.361-.319-.329-.758-.493-1.318-.493-.628 0-1.135.198-1.521.594-.386.386-.579.985-.579 1.796v3.838h-1.26v-7.242h1.26v1.043c.512-.82 1.294-1.23 2.346-1.23ZM162.269 89.231h1.347l-2.955 7.692c-.309.82-.744 1.443-1.304 1.868-.55.434-1.187.628-1.911.58v-1.174c.888.068 1.54-.425 1.955-1.477l.13-.275-3.157-7.214h1.347l2.462 5.678 2.086-5.678Z"/><path fill="#AAADC0" d="M87.334 54.091c-1.335 0-2.442-.44-3.32-1.318-.88-.887-1.319-1.981-1.319-3.283 0-1.3.44-2.39 1.318-3.27.88-.886 1.986-1.33 3.32-1.33.803 0 1.543.19 2.219.57.684.38 1.216.896 1.597 1.546l-1.268.736a2.564 2.564 0 0 0-1.039-1.04 2.931 2.931 0 0 0-1.508-.393c-.946 0-1.715.3-2.307.9-.583.6-.874 1.36-.874 2.281s.291 1.682.874 2.282c.592.6 1.36.9 2.307.9.557 0 1.064-.127 1.52-.38a2.56 2.56 0 0 0 1.027-1.053l1.268.723c-.372.65-.9 1.17-1.585 1.559-.675.38-1.419.57-2.23.57ZM95.25 54.091c-.93 0-1.72-.321-2.37-.963-.651-.642-.977-1.432-.977-2.37 0-.938.326-1.728.976-2.37.651-.642 1.441-.963 2.37-.963.938 0 1.728.32 2.37.963.651.642.976 1.432.976 2.37 0 .938-.325 1.728-.976 2.37-.642.642-1.432.963-2.37.963Zm-1.407-1.901c.38.38.849.57 1.406.57.558 0 1.027-.19 1.407-.57.38-.38.57-.858.57-1.432 0-.575-.19-1.052-.57-1.432-.38-.38-.849-.57-1.407-.57-.557 0-1.026.19-1.406.57-.38.38-.57.857-.57 1.432 0 .574.19 1.052.57 1.432ZM104.104 47.59h1.369v6.336h-1.369v-.81c-.414.65-1.069.975-1.964.975-.727 0-1.314-.232-1.762-.697-.448-.465-.672-1.103-.672-1.914v-3.89h1.369v3.75c0 .474.127.837.38 1.09.254.254.6.38 1.039.38.482 0 .871-.147 1.166-.443.296-.304.444-.764.444-1.381v-3.397ZM110.406 47.425c.727 0 1.314.232 1.762.697.448.464.672 1.102.672 1.913v3.891h-1.369v-3.751c0-.473-.127-.837-.38-1.09-.254-.254-.6-.38-1.039-.38-.482 0-.871.152-1.166.456-.296.296-.444.752-.444 1.369v3.396h-1.369V47.59h1.369v.812c.414-.651 1.069-.976 1.964-.976ZM117.85 48.907h-1.572v3.042c0 .262.059.452.177.57.119.11.292.174.52.19.237.009.528.005.875-.012v1.23c-1.048.126-1.8.037-2.256-.267-.457-.313-.685-.883-.685-1.71v-3.043h-1.166V47.59h1.166v-1.368l1.369-.406v1.774h1.572v1.319ZM120.522 48.654c.346-.786.997-1.179 1.951-1.179v1.483c-.523-.034-.98.093-1.368.38-.389.28-.583.744-.583 1.395v3.193h-1.369V47.59h1.369v1.065ZM127.879 47.59h1.458l-2.433 6.539c-.609 1.64-1.64 2.416-3.093 2.332v-1.28c.431.025.778-.068 1.039-.279.262-.203.478-.524.647-.963l.063-.127-2.687-6.223h1.496l1.888 4.6 1.622-4.6Z"/><path fill="#D9DDF5" d="M353.83 72.937h.905v36.211h-.905z"/><path stroke="#676C85" stroke-linecap="round" stroke-linejoin="round" stroke-width="2.5" d="m371.936 89.684 5.431 5.432 5.432-5.432"/><rect width="315.842" height="291.4" x="82.752" y="123.226" fill="#fff" stroke="#D9DDF5" rx="4.5"/><path fill="#E0EBFD" d="M83.158 134.495H398.19v28.968H83.158z"/><path fill="#2B3254" d="m110.078 154.41-.941-2.491h-4.809l-.942 2.491h-1.072l3.897-10.138h1.043l3.896 10.138h-1.072Zm-5.388-3.447h4.084l-2.042-5.431-2.042 5.431ZM117.335 147.168h.956v7.242h-.956v-1.129c-.541.869-1.352 1.303-2.434 1.303-.878 0-1.574-.265-2.085-.796-.503-.541-.754-1.265-.754-2.173v-4.447h.956v4.447c0 .647.169 1.149.507 1.506.348.358.835.536 1.463.536.695 0 1.26-.217 1.695-.651.434-.445.652-1.125.652-2.043v-3.795ZM121.066 149.066c0 .328.145.589.434.782.29.193.643.343 1.058.449.415.106.83.227 1.245.362.416.126.768.343 1.058.652.29.299.434.695.434 1.188 0 .618-.246 1.12-.738 1.506-.483.386-1.111.579-1.883.579-.696 0-1.289-.154-1.782-.463-.483-.309-.821-.71-1.014-1.202l.811-.478c.136.376.377.676.725.898.357.212.777.318 1.26.318.473 0 .869-.091 1.187-.275.319-.193.478-.488.478-.883 0-.329-.144-.589-.434-.783a3.448 3.448 0 0 0-1.057-.449 30.03 30.03 0 0 1-1.246-.347 2.537 2.537 0 0 1-1.057-.652c-.29-.309-.435-.71-.435-1.202 0-.589.232-1.082.695-1.478.473-.395 1.067-.593 1.782-.593.589 0 1.105.135 1.55.405.444.261.772.618.985 1.072l-.797.463c-.28-.675-.859-1.013-1.738-1.013-.415 0-.773.101-1.072.304-.299.193-.449.473-.449.84ZM130.446 148.095h-2.086v4.389c0 .396.077.681.232.855.154.164.386.251.695.26.309 0 .695-.009 1.159-.029v.84c-1.014.155-1.777.083-2.289-.217-.502-.299-.753-.869-.753-1.709v-4.389h-1.521v-.927h1.521v-1.738l.956-.289v2.027h2.086v.927ZM132.995 148.371c.444-.879 1.207-1.319 2.288-1.319v.927c-.656 0-1.202.194-1.636.58-.435.386-.652.994-.652 1.825v4.026h-.956v-7.242h.956v1.203ZM137.564 145.43a.672.672 0 0 1-.493.203.67.67 0 0 1-.492-.203.67.67 0 0 1-.203-.492c0-.193.068-.357.203-.493a.67.67 0 0 1 .492-.202c.193 0 .358.067.493.202.135.136.203.3.203.493a.67.67 0 0 1-.203.492Zm-.971 8.98v-7.242h.956v7.242h-.956ZM145.806 147.168h.956v7.242h-.956v-1.419c-.666 1.062-1.641 1.593-2.926 1.593-1.033 0-1.916-.367-2.65-1.101-.725-.733-1.087-1.631-1.087-2.694 0-1.062.362-1.96 1.087-2.694.734-.734 1.617-1.1 2.65-1.1 1.285 0 2.26.531 2.926 1.593v-1.42Zm-4.881 5.664c.55.55 1.226.825 2.028.825.801 0 1.477-.275 2.028-.825.55-.56.825-1.241.825-2.043 0-.801-.275-1.477-.825-2.027-.551-.56-1.227-.84-2.028-.84-.802 0-1.478.28-2.028.84-.55.55-.826 1.226-.826 2.027 0 .802.276 1.483.826 2.043ZM108.948 183.553c.493.212.884.536 1.173.97.3.425.449.913.449 1.463 0 .782-.275 1.448-.825 1.999a2.725 2.725 0 0 1-1.999.825h-4.418v-10.138h4.085a2.6 2.6 0 0 1 1.926.811c.531.531.797 1.168.797 1.912 0 .946-.396 1.665-1.188 2.158Zm-1.535-3.926h-3.071v3.535h3.071c.473 0 .874-.169 1.202-.507.338-.348.507-.768.507-1.26 0-.483-.169-.898-.507-1.246a1.59 1.59 0 0 0-1.202-.522Zm.333 8.228c.502 0 .927-.179 1.275-.536.357-.367.536-.812.536-1.333 0-.512-.179-.951-.536-1.318a1.69 1.69 0 0 0-1.275-.55h-3.404v3.737h3.404ZM115.511 181.395c1.072 0 1.936.381 2.593 1.144.666.753.999 1.646.999 2.679 0 .107-.009.256-.029.449h-6.358c.096.734.405 1.318.927 1.753.531.425 1.183.637 1.955.637.551 0 1.024-.111 1.42-.333.405-.232.709-.531.912-.898l.84.493a3.438 3.438 0 0 1-1.303 1.216c-.551.3-1.178.449-1.883.449-1.14 0-2.067-.357-2.781-1.072-.715-.714-1.072-1.622-1.072-2.723 0-1.081.352-1.984 1.057-2.708.705-.724 1.613-1.086 2.723-1.086Zm0 .927c-.753 0-1.385.226-1.897.68-.502.444-.802 1.024-.898 1.738h5.402c-.096-.762-.391-1.356-.883-1.781a2.557 2.557 0 0 0-1.724-.637ZM120.624 188.81v-10.573h.956v10.573h-.956ZM129.837 181.568h.956v6.953c0 1.043-.358 1.863-1.072 2.462-.715.599-1.569.898-2.564.898-1.699 0-2.844-.589-3.433-1.767l.84-.478c.435.879 1.299 1.318 2.593 1.318.831 0 1.482-.222 1.956-.666.482-.435.724-1.024.724-1.767v-1.13c-.667 1.062-1.642 1.593-2.926 1.593-1.033 0-1.917-.367-2.651-1.101-.724-.733-1.086-1.631-1.086-2.694 0-1.062.362-1.96 1.086-2.694a3.613 3.613 0 0 1 2.651-1.1c1.284 0 2.259.531 2.926 1.593v-1.42Zm-4.881 5.664c.55.55 1.226.825 2.027.825.802 0 1.478-.275 2.028-.825.551-.56.826-1.241.826-2.043 0-.801-.275-1.477-.826-2.027-.55-.56-1.226-.84-2.028-.84-.801 0-1.477.28-2.027.84-.551.55-.826 1.226-.826 2.027 0 .802.275 1.483.826 2.043ZM133.787 179.83a.67.67 0 0 1-.492.203.672.672 0 0 1-.493-.203.67.67 0 0 1-.203-.492c0-.193.068-.357.203-.493a.672.672 0 0 1 .493-.202.67.67 0 0 1 .492.202c.135.136.203.3.203.493a.67.67 0 0 1-.203.492Zm-.97 8.98v-7.242h.956v7.242h-.956ZM140.9 181.568h.956v7.242h-.956v-1.129c-.541.869-1.352 1.303-2.434 1.303-.878 0-1.574-.265-2.085-.796-.502-.541-.754-1.265-.754-2.173v-4.447h.956v4.447c0 .647.169 1.149.507 1.506.348.358.836.536 1.463.536.696 0 1.26-.217 1.695-.651.434-.445.652-1.125.652-2.043v-3.795ZM151.598 181.395c.811 0 1.463.26 1.955.782.502.521.754 1.226.754 2.114v4.519h-.956v-4.519c0-.627-.165-1.11-.493-1.448-.319-.348-.743-.521-1.274-.521-.599 0-1.087.202-1.463.608-.367.396-.551 1.019-.551 1.868v4.012h-.956v-4.519c0-.637-.154-1.125-.463-1.463-.3-.337-.71-.506-1.231-.506a2.01 2.01 0 0 0-1.478.608c-.405.405-.608 1.028-.608 1.868v4.012h-.956v-7.242h.956v1.058c.521-.821 1.26-1.231 2.216-1.231 1.043 0 1.777.439 2.202 1.318.521-.879 1.303-1.318 2.346-1.318ZM108.948 217.953c.493.212.884.536 1.173.97.3.425.449.913.449 1.463 0 .782-.275 1.448-.825 1.999a2.725 2.725 0 0 1-1.999.825h-4.418v-10.138h4.085a2.6 2.6 0 0 1 1.926.811c.531.531.797 1.168.797 1.912 0 .946-.396 1.665-1.188 2.158Zm-1.535-3.926h-3.071v3.535h3.071c.473 0 .874-.169 1.202-.507.338-.348.507-.768.507-1.26 0-.483-.169-.898-.507-1.246a1.59 1.59 0 0 0-1.202-.522Zm.333 8.228c.502 0 .927-.179 1.275-.536.357-.367.536-.812.536-1.333 0-.512-.179-.951-.536-1.318a1.69 1.69 0 0 0-1.275-.55h-3.404v3.737h3.404ZM117.405 215.968h.956v7.242h-.956v-1.129c-.54.869-1.352 1.303-2.433 1.303-.879 0-1.574-.265-2.086-.796-.502-.541-.753-1.265-.753-2.173v-4.447h.956v4.447c0 .647.169 1.149.507 1.506.348.358.835.536 1.463.536.695 0 1.26-.217 1.695-.651.434-.445.651-1.125.651-2.043v-3.795ZM120.384 223.21v-10.573h.955v10.573h-.955ZM129.596 215.968h.956v6.953c0 1.043-.357 1.863-1.072 2.462-.714.599-1.569.898-2.563.898-1.7 0-2.844-.589-3.433-1.767l.84-.478c.435.879 1.299 1.318 2.593 1.318.83 0 1.482-.222 1.955-.666.483-.435.724-1.024.724-1.767v-1.13c-.666 1.062-1.641 1.593-2.926 1.593-1.033 0-1.916-.367-2.65-1.101-.724-.733-1.086-1.631-1.086-2.694 0-1.062.362-1.96 1.086-2.694.734-.734 1.617-1.1 2.65-1.1 1.285 0 2.26.531 2.926 1.593v-1.42Zm-4.881 5.664c.55.55 1.226.825 2.028.825.801 0 1.477-.275 2.028-.825.55-.56.825-1.241.825-2.043 0-.801-.275-1.477-.825-2.027-.551-.56-1.227-.84-2.028-.84-.802 0-1.478.28-2.028.84-.55.55-.826 1.226-.826 2.027 0 .802.276 1.483.826 2.043ZM138.804 215.968h.956v7.242h-.956v-1.419c-.666 1.062-1.641 1.593-2.925 1.593-1.034 0-1.917-.367-2.651-1.101-.724-.733-1.086-1.631-1.086-2.694 0-1.062.362-1.96 1.086-2.694.734-.734 1.617-1.1 2.651-1.1 1.284 0 2.259.531 2.925 1.593v-1.42Zm-4.881 5.664c.551.55 1.227.825 2.028.825.802 0 1.477-.275 2.028-.825.55-.56.825-1.241.825-2.043 0-.801-.275-1.477-.825-2.027-.551-.56-1.226-.84-2.028-.84-.801 0-1.477.28-2.028.84-.55.55-.825 1.226-.825 2.027 0 .802.275 1.483.825 2.043ZM142.74 217.171c.445-.879 1.207-1.319 2.289-1.319v.927c-.657 0-1.202.194-1.637.58-.434.386-.652.994-.652 1.825v4.026h-.956v-7.242h.956v1.203ZM147.31 214.23a.674.674 0 0 1-.493.203.67.67 0 0 1-.492-.203.666.666 0 0 1-.203-.492.67.67 0 0 1 .203-.493.67.67 0 0 1 .492-.202c.193 0 .357.067.493.202.135.136.202.3.202.493a.67.67 0 0 1-.202.492Zm-.971 8.98v-7.242h.956v7.242h-.956ZM155.552 215.968h.956v7.242h-.956v-1.419c-.666 1.062-1.642 1.593-2.926 1.593-1.033 0-1.917-.367-2.651-1.101-.724-.733-1.086-1.631-1.086-2.694 0-1.062.362-1.96 1.086-2.694a3.613 3.613 0 0 1 2.651-1.1c1.284 0 2.26.531 2.926 1.593v-1.42Zm-4.881 5.664c.55.55 1.226.825 2.027.825.802 0 1.478-.275 2.028-.825.551-.56.826-1.241.826-2.043 0-.801-.275-1.477-.826-2.027-.55-.56-1.226-.84-2.028-.84-.801 0-1.477.28-2.027.84-.551.55-.826 1.226-.826 2.027 0 .802.275 1.483.826 2.043ZM108.065 257.784c-1.536 0-2.805-.507-3.81-1.521-1.004-1.013-1.506-2.254-1.506-3.722s.502-2.709 1.506-3.722c1.005-1.014 2.274-1.521 3.81-1.521.936 0 1.796.227 2.578.68a4.66 4.66 0 0 1 1.81 1.811l-.898.521a3.592 3.592 0 0 0-1.419-1.477 4.03 4.03 0 0 0-2.071-.55c-1.265 0-2.298.41-3.1 1.231-.801.821-1.202 1.83-1.202 3.027s.401 2.206 1.202 3.027c.802.821 1.835 1.231 3.1 1.231a4.03 4.03 0 0 0 2.071-.55 3.592 3.592 0 0 0 1.419-1.477l.898.507a4.635 4.635 0 0 1-1.81 1.825 5.053 5.053 0 0 1-2.578.68ZM114.932 251.571c.444-.879 1.207-1.319 2.288-1.319v.927c-.656 0-1.202.194-1.636.58-.435.386-.652.994-.652 1.825v4.026h-.956v-7.242h.956v1.203ZM124.161 256.698c-.734.724-1.632 1.086-2.694 1.086s-1.965-.362-2.709-1.086c-.734-.734-1.1-1.637-1.1-2.709 0-1.071.366-1.969 1.1-2.694.744-.734 1.647-1.1 2.709-1.1s1.96.366 2.694 1.1c.743.725 1.115 1.623 1.115 2.694 0 1.072-.372 1.975-1.115 2.709Zm-4.722-.666c.55.55 1.226.825 2.028.825.801 0 1.477-.275 2.028-.825.55-.56.825-1.241.825-2.043 0-.801-.275-1.477-.825-2.027-.551-.56-1.227-.84-2.028-.84-.802 0-1.478.28-2.028.84-.55.55-.826 1.226-.826 2.027 0 .802.276 1.483.826 2.043ZM133.104 250.368h.956v7.242h-.956v-1.419c-.666 1.062-1.641 1.593-2.926 1.593-1.033 0-1.916-.367-2.65-1.101-.724-.733-1.087-1.631-1.087-2.694 0-1.062.363-1.96 1.087-2.694.734-.734 1.617-1.1 2.65-1.1 1.285 0 2.26.531 2.926 1.593v-1.42Zm-4.881 5.664c.55.55 1.226.825 2.028.825.801 0 1.477-.275 2.028-.825.55-.56.825-1.241.825-2.043 0-.801-.275-1.477-.825-2.027-.551-.56-1.227-.84-2.028-.84-.802 0-1.478.28-2.028.84-.55.55-.826 1.226-.826 2.027 0 .802.276 1.483.826 2.043ZM139.922 251.295h-2.085v4.389c0 .396.077.681.232.855.154.164.386.251.695.26.309 0 .695-.009 1.158-.029v.84c-1.013.155-1.776.083-2.288-.217-.502-.299-.753-.869-.753-1.709v-4.389h-1.521v-.927h1.521v-1.738l.956-.289v2.027h2.085v.927ZM142.486 248.63a.67.67 0 0 1-.492.203.672.672 0 0 1-.493-.203.67.67 0 0 1-.203-.492c0-.193.068-.357.203-.493a.672.672 0 0 1 .493-.202.67.67 0 0 1 .492.202c.135.136.203.3.203.493a.67.67 0 0 1-.203.492Zm-.97 8.98v-7.242h.956v7.242h-.956ZM150.728 250.368h.956v7.242h-.956v-1.419c-.666 1.062-1.641 1.593-2.925 1.593-1.034 0-1.917-.367-2.651-1.101-.724-.733-1.086-1.631-1.086-2.694 0-1.062.362-1.96 1.086-2.694.734-.734 1.617-1.1 2.651-1.1 1.284 0 2.259.531 2.925 1.593v-1.42Zm-4.881 5.664c.551.55 1.227.825 2.028.825.802 0 1.477-.275 2.028-.825.55-.56.825-1.241.825-2.043 0-.801-.275-1.477-.825-2.027-.551-.56-1.226-.84-2.028-.84-.801 0-1.477.28-2.028.84-.55.55-.825 1.226-.825 2.027 0 .802.275 1.483.825 2.043ZM108.065 292.184c-1.536 0-2.805-.507-3.81-1.521-1.004-1.013-1.506-2.254-1.506-3.722s.502-2.709 1.506-3.722c1.005-1.014 2.274-1.521 3.81-1.521.936 0 1.796.227 2.578.68a4.66 4.66 0 0 1 1.81 1.811l-.898.521a3.592 3.592 0 0 0-1.419-1.477 4.03 4.03 0 0 0-2.071-.55c-1.265 0-2.298.41-3.1 1.231-.801.821-1.202 1.83-1.202 3.027s.401 2.206 1.202 3.027c.802.821 1.835 1.231 3.1 1.231a4.03 4.03 0 0 0 2.071-.55 3.592 3.592 0 0 0 1.419-1.477l.898.507a4.635 4.635 0 0 1-1.81 1.825 5.053 5.053 0 0 1-2.578.68ZM119.19 284.768h1.014l-3.099 7.909c-.28.714-.681 1.274-1.203 1.68a2.36 2.36 0 0 1-1.723.55v-.898c.869.097 1.53-.405 1.984-1.506l.188-.449-3.244-7.286h1.014l2.723 6.069 2.346-6.069ZM125.241 284.595c1.033 0 1.912.366 2.636 1.1.734.734 1.101 1.632 1.101 2.694 0 1.063-.367 1.961-1.101 2.694a3.565 3.565 0 0 1-2.636 1.101c-1.284 0-2.259-.531-2.926-1.593v4.316h-.956v-10.139h.956v1.42c.667-1.062 1.642-1.593 2.926-1.593Zm-2.1 5.837c.55.55 1.226.825 2.028.825.801 0 1.477-.275 2.028-.825.55-.56.825-1.241.825-2.043 0-.801-.275-1.477-.825-2.027-.551-.56-1.227-.84-2.028-.84-.802 0-1.478.28-2.028.84-.55.55-.826 1.226-.826 2.027 0 .802.276 1.483.826 2.043ZM131.524 285.971c.444-.879 1.207-1.319 2.288-1.319v.927c-.656 0-1.202.194-1.637.58-.434.386-.651.994-.651 1.825v4.026h-.956v-7.242h.956v1.203ZM140.221 284.768h.956v7.242h-.956v-1.129c-.541.869-1.352 1.303-2.434 1.303-.878 0-1.574-.265-2.085-.796-.502-.541-.753-1.265-.753-2.173v-4.447h.955v4.447c0 .647.169 1.149.507 1.506.348.358.836.536 1.463.536.696 0 1.26-.217 1.695-.652.435-.444.652-1.124.652-2.042v-3.795ZM143.952 286.666c0 .328.145.589.435.782.289.193.642.343 1.057.449.415.106.83.227 1.246.362.415.126.767.343 1.057.652.29.299.435.695.435 1.188 0 .618-.247 1.12-.739 1.506-.483.386-1.111.579-1.883.579-.695 0-1.289-.154-1.782-.463-.482-.309-.82-.71-1.014-1.202l.812-.478c.135.376.376.676.724.898.357.212.777.318 1.26.318.473 0 .869-.091 1.188-.275.318-.193.478-.488.478-.883 0-.329-.145-.589-.435-.783a3.448 3.448 0 0 0-1.057-.449 30.03 30.03 0 0 1-1.246-.347 2.537 2.537 0 0 1-1.057-.652c-.29-.309-.435-.71-.435-1.202 0-.589.232-1.082.695-1.478.474-.395 1.067-.593 1.782-.593.589 0 1.106.135 1.55.405.444.261.772.618.985 1.072l-.797.463c-.28-.675-.859-1.013-1.738-1.013-.415 0-.773.101-1.072.304-.299.193-.449.473-.449.84ZM108.065 326.584c-1.536 0-2.805-.507-3.81-1.521-1.004-1.013-1.506-2.254-1.506-3.722s.502-2.709 1.506-3.722c1.005-1.014 2.274-1.521 3.81-1.521.936 0 1.796.227 2.578.68a4.66 4.66 0 0 1 1.81 1.811l-.898.521a3.592 3.592 0 0 0-1.419-1.477 4.03 4.03 0 0 0-2.071-.55c-1.265 0-2.298.41-3.1 1.231-.801.821-1.202 1.83-1.202 3.027s.401 2.206 1.202 3.027c.802.821 1.835 1.231 3.1 1.231a4.03 4.03 0 0 0 2.071-.55 3.592 3.592 0 0 0 1.419-1.477l.898.507a4.635 4.635 0 0 1-1.81 1.825 5.053 5.053 0 0 1-2.578.68ZM114.736 325.483h4.171v.927h-5.504v-.637l4.027-5.678h-3.882v-.927h5.215v.638l-4.027 5.677ZM123.404 318.995c1.072 0 1.936.381 2.593 1.144.666.753.999 1.646.999 2.679 0 .107-.01.256-.029.449h-6.358c.096.734.405 1.318.927 1.753.531.425 1.182.637 1.955.637.55 0 1.023-.111 1.419-.333.406-.232.71-.531.913-.898l.84.493a3.441 3.441 0 0 1-1.304 1.216c-.55.3-1.178.449-1.883.449-1.139 0-2.066-.357-2.781-1.072-.714-.714-1.071-1.622-1.071-2.723 0-1.081.352-1.984 1.057-2.708.705-.724 1.613-1.086 2.723-1.086Zm0 .927c-.753 0-1.386.226-1.897.68-.503.444-.802 1.024-.898 1.738h5.402c-.096-.762-.391-1.356-.883-1.781a2.557 2.557 0 0 0-1.724-.637ZM131.892 326.584c-1.092 0-1.999-.362-2.723-1.086-.725-.734-1.087-1.637-1.087-2.709 0-1.071.362-1.969 1.087-2.694.724-.734 1.631-1.1 2.723-1.1.714 0 1.356.173 1.926.521.57.338.985.797 1.246 1.376l-.783.449a2.2 2.2 0 0 0-.941-1.028 2.711 2.711 0 0 0-1.448-.391c-.802 0-1.478.28-2.028.84-.551.55-.826 1.226-.826 2.027 0 .802.275 1.483.826 2.043.55.55 1.226.825 2.028.825.54 0 1.023-.125 1.448-.376a2.8 2.8 0 0 0 .999-1.043l.797.463a3.343 3.343 0 0 1-1.318 1.376 3.753 3.753 0 0 1-1.926.507ZM139.898 318.995c.879 0 1.569.27 2.071.811.512.531.768 1.25.768 2.158v4.446h-.956v-4.446c0-.647-.174-1.149-.522-1.507-.338-.357-.82-.535-1.448-.535-.695 0-1.26.222-1.695.666-.434.434-.652 1.11-.652 2.028v3.794h-.955v-10.138h.955v4.026c.541-.869 1.352-1.303 2.434-1.303ZM154.579 326.41l-2.375-4.055h-2.839v4.055h-1.014v-10.138h4.056c.84 0 1.554.299 2.143.898.599.589.898 1.303.898 2.143 0 .686-.207 1.299-.623 1.84a2.95 2.95 0 0 1-1.564 1.072l2.477 4.185h-1.159Zm-5.214-9.183v4.172h3.042c.56 0 1.038-.203 1.434-.608.395-.416.593-.908.593-1.478 0-.579-.198-1.072-.593-1.477a1.93 1.93 0 0 0-1.434-.609h-3.042ZM160.025 318.995c1.072 0 1.936.381 2.592 1.144.667.753 1 1.646 1 2.679 0 .107-.01.256-.029.449h-6.359c.097.734.406 1.318.927 1.753.531.425 1.183.637 1.956.637.55 0 1.023-.111 1.419-.333.406-.232.71-.531.913-.898l.84.493a3.441 3.441 0 0 1-1.304 1.216c-.55.3-1.178.449-1.883.449-1.139 0-2.066-.357-2.781-1.072-.714-.714-1.072-1.622-1.072-2.723 0-1.081.353-1.984 1.058-2.708.705-.724 1.612-1.086 2.723-1.086Zm0 .927c-.753 0-1.386.226-1.898.68-.502.444-.801 1.024-.898 1.738h5.403c-.097-.762-.391-1.356-.884-1.781a2.555 2.555 0 0 0-1.723-.637ZM169.019 318.995c1.033 0 1.912.366 2.636 1.1.734.734 1.101 1.632 1.101 2.694 0 1.063-.367 1.961-1.101 2.694a3.565 3.565 0 0 1-2.636 1.101c-1.284 0-2.259-.531-2.926-1.593v4.316h-.956v-10.139h.956v1.42c.667-1.062 1.642-1.593 2.926-1.593Zm-2.1 5.837c.55.55 1.226.825 2.028.825.801 0 1.477-.275 2.028-.825.55-.56.825-1.241.825-2.043 0-.801-.275-1.477-.825-2.027-.551-.56-1.227-.84-2.028-.84-.802 0-1.478.28-2.028.84-.55.55-.826 1.226-.826 2.027 0 .802.276 1.483.826 2.043ZM179.444 319.168h.956v7.242h-.956v-1.129c-.541.869-1.352 1.303-2.433 1.303-.879 0-1.574-.265-2.086-.796-.502-.541-.753-1.265-.753-2.173v-4.447h.956v4.447c0 .647.169 1.149.507 1.506.347.358.835.536 1.463.536.695 0 1.26-.217 1.694-.652.435-.444.652-1.124.652-2.042v-3.795ZM186.304 318.995c1.033 0 1.912.366 2.636 1.1.734.734 1.101 1.632 1.101 2.694 0 1.063-.367 1.961-1.101 2.694a3.565 3.565 0 0 1-2.636 1.101c-1.284 0-2.259-.531-2.926-1.593v1.419h-.956v-10.138h.956v4.316c.667-1.062 1.642-1.593 2.926-1.593Zm-2.1 5.837c.55.55 1.226.825 2.028.825.801 0 1.477-.275 2.027-.825.551-.56.826-1.241.826-2.043 0-.801-.275-1.477-.826-2.027-.55-.56-1.226-.84-2.027-.84-.802 0-1.478.28-2.028.84-.551.55-.826 1.226-.826 2.027 0 .802.275 1.483.826 2.043ZM191.631 326.41v-10.573h.956v10.573h-.956ZM195.586 317.43a.674.674 0 0 1-.493.203.67.67 0 0 1-.492-.203.666.666 0 0 1-.203-.492.67.67 0 0 1 .203-.493.67.67 0 0 1 .492-.202c.193 0 .357.067.493.202.135.136.202.3.202.493a.67.67 0 0 1-.202.492Zm-.971 8.98v-7.242h.956v7.242h-.956ZM200.974 326.584c-1.091 0-1.998-.362-2.723-1.086-.724-.734-1.086-1.637-1.086-2.709 0-1.071.362-1.969 1.086-2.694.725-.734 1.632-1.1 2.723-1.1.715 0 1.357.173 1.927.521.57.338.985.797 1.245 1.376l-.782.449a2.2 2.2 0 0 0-.941-1.028 2.712 2.712 0 0 0-1.449-.391c-.801 0-1.477.28-2.027.84-.551.55-.826 1.226-.826 2.027 0 .802.275 1.483.826 2.043.55.55 1.226.825 2.027.825.541 0 1.024-.125 1.449-.376a2.8 2.8 0 0 0 .999-1.043l.797.463a3.343 3.343 0 0 1-1.318 1.376 3.756 3.756 0 0 1-1.927.507ZM107.239 350.672c1.381 0 2.52.492 3.418 1.477.908.975 1.362 2.173 1.362 3.592s-.454 2.622-1.362 3.607c-.898.975-2.037 1.462-3.418 1.462h-3.911v-10.138h3.911Zm0 9.183c1.111 0 2.018-.396 2.723-1.188.715-.792 1.072-1.767 1.072-2.926 0-1.159-.357-2.134-1.072-2.926-.705-.792-1.612-1.188-2.723-1.188h-2.897v8.228h2.897ZM116.954 353.395c1.072 0 1.936.381 2.593 1.144.666.753.999 1.646.999 2.679 0 .107-.01.256-.029.449h-6.358c.096.734.405 1.318.927 1.753.531.425 1.182.637 1.955.637.55 0 1.023-.111 1.419-.333.406-.232.71-.531.913-.898l.84.493a3.441 3.441 0 0 1-1.304 1.216c-.55.3-1.178.449-1.883.449-1.139 0-2.066-.357-2.781-1.072-.714-.714-1.071-1.622-1.071-2.723 0-1.081.352-1.984 1.057-2.708.705-.724 1.613-1.086 2.723-1.086Zm0 .927c-.753 0-1.386.226-1.897.68-.503.444-.802 1.024-.898 1.738h5.402c-.096-.762-.391-1.356-.883-1.781a2.557 2.557 0 0 0-1.724-.637ZM125.456 353.395c.879 0 1.569.27 2.071.811.512.531.768 1.25.768 2.158v4.446h-.956v-4.446c0-.647-.174-1.149-.521-1.507-.338-.357-.821-.535-1.449-.535-.695 0-1.26.222-1.695.666-.434.434-.651 1.11-.651 2.028v3.794h-.956v-7.242h.956v1.13c.54-.869 1.352-1.303 2.433-1.303ZM137.863 353.395c.812 0 1.463.26 1.956.782.502.521.753 1.226.753 2.114v4.519h-.956v-4.519c0-.627-.164-1.11-.492-1.448-.319-.348-.744-.521-1.275-.521-.599 0-1.086.202-1.463.608-.367.396-.55 1.019-.55 1.868v4.012h-.956v-4.519c0-.637-.155-1.125-.464-1.463-.299-.337-.71-.506-1.231-.506-.579 0-1.072.202-1.477.608-.406.405-.609 1.028-.609 1.868v4.012h-.956v-7.242h.956v1.058c.522-.821 1.26-1.231 2.216-1.231 1.043 0 1.777.439 2.202 1.318.521-.879 1.304-1.318 2.346-1.318ZM148.649 353.568h.956v7.242h-.956v-1.419c-.666 1.062-1.641 1.593-2.926 1.593-1.033 0-1.916-.367-2.65-1.101-.724-.733-1.087-1.631-1.087-2.694 0-1.062.363-1.96 1.087-2.694.734-.734 1.617-1.1 2.65-1.1 1.285 0 2.26.531 2.926 1.593v-1.42Zm-4.881 5.664c.55.55 1.226.825 2.028.825.801 0 1.477-.275 2.028-.825.55-.56.825-1.241.825-2.043 0-.801-.275-1.477-.825-2.027-.551-.56-1.227-.84-2.028-.84-.802 0-1.478.28-2.028.84-.55.55-.826 1.226-.826 2.027 0 .802.276 1.483.826 2.043ZM152.585 354.771c.444-.879 1.207-1.319 2.289-1.319v.927c-.657 0-1.202.194-1.637.58-.435.386-.652.994-.652 1.825v4.026h-.956v-7.242h.956v1.203ZM162.035 360.81h-1.274l-3.621-3.49v3.49h-.956v-10.138h.956v6.097l3.447-3.201h1.304l-3.737 3.477 3.881 3.765ZM104.342 394.255h4.925v.955h-5.939v-10.138h5.866v.955h-4.852v3.593h4.49v.956h-4.49v3.679ZM111.617 389.866c0 .328.145.589.435.782.289.193.642.343 1.057.449.415.106.831.227 1.246.362.415.126.767.343 1.057.652.29.299.435.695.435 1.188 0 .618-.247 1.12-.739 1.506-.483.386-1.11.579-1.883.579-.695 0-1.289-.154-1.782-.463-.482-.309-.82-.71-1.013-1.202l.811-.478c.135.376.376.676.724.898.357.212.777.318 1.26.318.473 0 .869-.091 1.188-.275.318-.193.478-.488.478-.883 0-.329-.145-.589-.435-.783a3.448 3.448 0 0 0-1.057-.449 30.47 30.47 0 0 1-1.246-.347 2.543 2.543 0 0 1-1.057-.652c-.29-.309-.435-.71-.435-1.202 0-.589.232-1.082.696-1.478.473-.395 1.067-.593 1.781-.593.589 0 1.106.135 1.55.405.444.261.772.618.985 1.072l-.797.463c-.28-.675-.859-1.013-1.738-1.013-.415 0-.772.101-1.072.304-.299.193-.449.473-.449.84ZM120.997 388.895h-2.086v4.389c0 .396.077.681.232.855.154.164.386.251.695.26.309 0 .695-.009 1.159-.029v.84c-1.014.155-1.777.083-2.289-.217-.502-.299-.753-.869-.753-1.709v-4.389h-1.521v-.927h1.521v-1.738l.956-.289v2.027h2.086v.927ZM128.22 394.298c-.733.724-1.631 1.086-2.694 1.086-1.062 0-1.965-.362-2.708-1.086-.734-.734-1.101-1.637-1.101-2.709 0-1.071.367-1.969 1.101-2.694.743-.734 1.646-1.1 2.708-1.1 1.063 0 1.961.366 2.694 1.1.744.725 1.116 1.623 1.116 2.694 0 1.072-.372 1.975-1.116 2.709Zm-4.721-.666c.55.55 1.226.825 2.027.825.802 0 1.478-.275 2.028-.825.551-.56.826-1.241.826-2.043 0-.801-.275-1.477-.826-2.027-.55-.56-1.226-.84-2.028-.84-.801 0-1.477.28-2.027.84-.551.55-.826 1.226-.826 2.027 0 .802.275 1.483.826 2.043ZM134.325 387.795c.878 0 1.569.27 2.071.811.512.531.768 1.25.768 2.158v4.446h-.956v-4.446c0-.647-.174-1.149-.522-1.507-.338-.357-.82-.535-1.448-.535-.695 0-1.26.222-1.695.666-.434.434-.652 1.11-.652 2.028v3.794h-.956v-7.242h.956v1.13c.541-.869 1.352-1.303 2.434-1.303ZM139.983 386.23a.674.674 0 0 1-.493.203.67.67 0 0 1-.492-.203.666.666 0 0 1-.203-.492.67.67 0 0 1 .203-.493.67.67 0 0 1 .492-.202c.193 0 .357.067.493.202.135.136.202.3.202.493a.67.67 0 0 1-.202.492Zm-.971 8.98v-7.242h.956v7.242h-.956ZM148.225 387.968h.956v7.242h-.956v-1.419c-.666 1.062-1.642 1.593-2.926 1.593-1.033 0-1.917-.367-2.651-1.101-.724-.733-1.086-1.631-1.086-2.694 0-1.062.362-1.96 1.086-2.694a3.613 3.613 0 0 1 2.651-1.1c1.284 0 2.26.531 2.926 1.593v-1.42Zm-4.881 5.664c.55.55 1.226.825 2.027.825.802 0 1.478-.275 2.028-.825.551-.56.826-1.241.826-2.043 0-.801-.275-1.477-.826-2.027-.55-.56-1.226-.84-2.028-.84-.801 0-1.477.28-2.027.84-.551.55-.826 1.226-.826 2.027 0 .802.275 1.483.826 2.043Z"/><g filter="url(#b)"><circle cx="447.629" cy="191" r="69" fill="#29327A"/></g><path fill="#fff" d="M433.651 190.053v1.198c0 2.218-.711 4.014-2.135 5.39-1.423 1.375-3.261 2.062-5.515 2.062-2.401 0-4.395-.776-5.982-2.329-1.571-1.567-2.357-3.474-2.357-5.722 0-2.262.778-4.177 2.335-5.744 1.572-1.567 3.514-2.351 5.826-2.351 1.453 0 2.78.333 3.981.998 1.201.651 2.135 1.523 2.802 2.617l-2.624 1.508c-.371-.635-.934-1.153-1.69-1.552-.741-.399-1.572-.599-2.491-.599-1.482 0-2.705.488-3.669 1.464-.949.961-1.423 2.181-1.423 3.659 0 1.464.482 2.677 1.445 3.638.979.946 2.268 1.419 3.87 1.419 1.186 0 2.164-.259 2.935-.776a3.954 3.954 0 0 0 1.601-2.174h-4.714v-2.706h7.805ZM442.461 182.868c2.135 0 3.914.746 5.337 2.24 1.438 1.493 2.157 3.334 2.157 5.522s-.719 4.029-2.157 5.523c-1.423 1.493-3.202 2.24-5.337 2.24h-6.182v-15.525h6.182Zm0 12.597c1.349 0 2.446-.444 3.291-1.331.845-.902 1.268-2.07 1.268-3.504 0-1.434-.423-2.595-1.268-3.482-.845-.902-1.942-1.353-3.291-1.353h-3.113v9.67h3.113ZM458.381 182.868c1.497 0 2.757.502 3.78 1.508 1.023 1.005 1.535 2.24 1.535 3.704 0 1.463-.512 2.698-1.535 3.703-1.023 1.006-2.283 1.509-3.78 1.509h-2.735v5.101h-3.069v-15.525h5.804Zm0 7.563c.652 0 1.193-.222 1.623-.666.43-.458.645-1.02.645-1.685 0-.681-.215-1.242-.645-1.686-.43-.444-.971-.665-1.623-.665h-2.735v4.702h2.735ZM474.678 198.393l-3.136-5.39h-2.335v5.39h-3.069v-15.525h6.227c1.438 0 2.661.502 3.669 1.508 1.009 1.005 1.513 2.218 1.513 3.637 0 .961-.275 1.856-.823 2.684a5.175 5.175 0 0 1-2.18 1.84l3.447 5.856h-3.313Zm-5.471-12.664v4.591h3.158c.578 0 1.075-.222 1.49-.666a2.36 2.36 0 0 0 .623-1.641c0-.636-.208-1.175-.623-1.619-.415-.444-.912-.665-1.49-.665h-3.158Z"/><path fill="#E8E519" fill-rule="evenodd" d="m447.717 135.927 2.001 6.213h6.464l-5.231 3.84 1.997 6.216-5.231-3.84-5.231 3.84 1.997-6.216-5.231-3.84h6.467l1.998-6.213ZM472.153 142.469l2 6.216h6.465l-5.232 3.841 1.998 6.213-5.231-3.841-5.232 3.841 1.998-6.213-5.231-3.841h6.467l1.998-6.216ZM487.696 157.821l1.997 6.216h6.468l-5.232 3.841 1.998 6.213-5.231-3.841-5.235 3.841 2.001-6.213-5.232-3.841h6.465l2.001-6.216ZM494.753 181.148l1.998 6.213h6.467l-5.234 3.844 2.001 6.213-5.232-3.841-5.234 3.841 1.998-6.213-5.232-3.844h6.467l2.001-6.213ZM400.684 181.148l1.998 6.213h6.467l-5.232 3.844 1.998 6.213-5.231-3.841-5.232 3.841 1.998-6.213-5.231-3.844h6.467l1.998-6.213ZM447.717 230.66l2.001 6.213h6.464l-5.231 3.841 1.997 6.213-5.231-3.841-5.231 3.841 1.997-6.213-5.231-3.841h6.467l1.998-6.213ZM399.039 166.668l6.15-2.022v-6.531l3.801 5.286 6.152-2.019-3.801 5.286 3.801 5.285-6.152-2.018-3.801 5.285v-6.534l-6.15-2.018ZM414.234 150.962l6.15-2.018v-6.534l3.801 5.285 6.153-2.018-3.802 5.285 3.802 5.289-6.153-2.022-3.801 5.289v-6.534l-6.15-2.022ZM423.048 240.481l-2.001-6.216h-6.467l5.232-3.841-1.998-6.213 5.234 3.841 5.232-3.841-1.998 6.213 5.231 3.841h-6.467l-1.998 6.216ZM407.504 225.127l-1.998-6.213h-6.467l5.232-3.841-1.998-6.213 5.231 3.841 5.232-3.841-1.998 6.213 5.231 3.841h-6.467l-1.998 6.213ZM496.164 216.283l-6.153 2.019v6.534l-3.801-5.286-6.149 2.019 3.801-5.286-3.801-5.285 6.149 2.018 3.801-5.285v6.534l6.153 2.018ZM480.969 231.988l-6.153 2.019v6.534l-3.801-5.286-6.15 2.019 3.802-5.286-3.802-5.288 6.15 2.018 3.801-5.286v6.535l6.153 2.021Z" clip-rule="evenodd"/><defs><linearGradient id="a" x1="272.995" x2="276.236" y1="12.375" y2="475.659" gradientUnits="userSpaceOnUse"><stop stop-color="#EFF1FE"/><stop offset=".533" stop-color="#F5F6FE"/><stop offset="1" stop-color="#fff"/></linearGradient><filter id="b" width="198" height="198" x="348.629" y="107" color-interpolation-filters="sRGB" filterUnits="userSpaceOnUse"><feFlood flood-opacity="0" result="BackgroundImageFix"/><feColorMatrix in="SourceAlpha" result="hardAlpha" values="0 0 0 0 0 0 0 0 0 0 0 0 0 0 0 0 0 0 127 0"/><feOffset dy="15"/><feGaussianBlur stdDeviation="15"/><feComposite in2="hardAlpha" operator="out"/><feColorMatrix values="0 0 0 0 0.179444 0 0 0 0 0.229877 0 0 0 0 0.633333 0 0 0 0.4 0"/><feBlend in2="BackgroundImageFix" result="effect1_dropShadow_5560_192"/><feBlend in="SourceGraphic" in2="effect1_dropShadow_5560_192" result="shape"/></filter></defs></svg>